<?xml version="1.0" encoding="UTF-8" standalone="no"?>
<!DOCTYPE svg PUBLIC "-//W3C//DTD SVG 1.1//EN"
 "http://www.w3.org/Graphics/SVG/1.1/DTD/svg11.dtd">
<!-- Generated by graphviz version 12.2.1 (20241206.2353)
 -->
<!-- Title: G Pages: 1 -->
<svg width="15367pt" height="251pt"
 viewBox="0.00 0.00 5532.25 90.50" xmlns="http://www.w3.org/2000/svg" xmlns:xlink="http://www.w3.org/1999/xlink">
<g id="graph0" class="graph" transform="scale(2.77778 2.77778) rotate(0) translate(4 86.5)">
<title>G</title>
<polygon fill="white" stroke="none" points="-4,4 -4,-86.5 5528.25,-86.5 5528.25,4 -4,4"/>
<!-- 22566926992 -->
<g id="node1" class="node">
<title>22566926992</title>
<polygon fill="#8ea9db" stroke="black" points="0,-0.5 0,-82 362.75,-82 362.75,-0.5 0,-0.5"/>
<polygon fill="black" stroke="none" points="0,-0.5 0,-82 362.75,-82 362.75,-0.5 0,-0.5"/>
<polygon fill="black" stroke="none" points="2,-41.5 2,-80 360.75,-80 360.75,-41.5 2,-41.5"/>
<polygon fill="none" stroke="black" points="2,-41.5 2,-80 360.75,-80 360.75,-41.5 2,-41.5"/>
<text text-anchor="start" x="113.88" y="-54.8" font-family="Helvetica,sans-Serif" font-weight="bold" font-size="16.00" fill="white">dense_22</text>
<text text-anchor="start" x="187.38" y="-54.8" font-family="Helvetica,sans-Serif" font-size="16.00" fill="white"> (Dense)</text>
<polygon fill="white" stroke="none" points="2,-2.5 2,-39.5 174.75,-39.5 174.75,-2.5 2,-2.5"/>
<polygon fill="none" stroke="black" points="2,-2.5 2,-39.5 174.75,-39.5 174.75,-2.5 2,-2.5"/>
<text text-anchor="start" x="13" y="-16.2" font-family="Helvetica,sans-Serif" font-size="14.00">Input shape: </text>
<text text-anchor="start" x="91" y="-16.2" font-family="Helvetica,sans-Serif" font-weight="bold" font-size="14.00">(None, 384)</text>
<polygon fill="white" stroke="none" points="176.75,-2.5 176.75,-39.5 360.75,-39.5 360.75,-2.5 176.75,-2.5"/>
<polygon fill="none" stroke="black" points="176.75,-2.5 176.75,-39.5 360.75,-39.5 360.75,-2.5 176.75,-2.5"/>
<text text-anchor="start" x="187.75" y="-16.2" font-family="Helvetica,sans-Serif" font-size="14.00">Output shape: </text>
<text text-anchor="start" x="277" y="-16.2" font-family="Helvetica,sans-Serif" font-weight="bold" font-size="14.00">(None, 256)</text>
</g>
<!-- 20704280464 -->
<g id="node2" class="node">
<title>20704280464</title>
<polygon fill="#b6d7a8" stroke="black" points="434.75,-0.5 434.75,-82 799,-82 799,-0.5 434.75,-0.5"/>
<polygon fill="black" stroke="none" points="434.75,-0.5 434.75,-82 799,-82 799,-0.5 434.75,-0.5"/>
<polygon fill="black" stroke="none" points="436.75,-41.5 436.75,-80 797,-80 797,-41.5 436.75,-41.5"/>
<polygon fill="none" stroke="black" points="436.75,-41.5 436.75,-80 797,-80 797,-41.5 436.75,-41.5"/>
<text text-anchor="start" x="447.75" y="-54.8" font-family="Helvetica,sans-Serif" font-weight="bold" font-size="16.00" fill="white">batch_normalization_16</text>
<text text-anchor="start" x="630.75" y="-54.8" font-family="Helvetica,sans-Serif" font-size="16.00" fill="white"> (BatchNormalization)</text>
<polygon fill="white" stroke="none" points="436.75,-2.5 436.75,-39.5 610.25,-39.5 610.25,-2.5 436.75,-2.5"/>
<polygon fill="none" stroke="black" points="436.75,-2.5 436.75,-39.5 610.25,-39.5 610.25,-2.5 436.75,-2.5"/>
<text text-anchor="start" x="448.12" y="-16.2" font-family="Helvetica,sans-Serif" font-size="14.00">Input shape: </text>
<text text-anchor="start" x="526.12" y="-16.2" font-family="Helvetica,sans-Serif" font-weight="bold" font-size="14.00">(None, 256)</text>
<polygon fill="white" stroke="none" points="612.25,-2.5 612.25,-39.5 797,-39.5 797,-2.5 612.25,-2.5"/>
<polygon fill="none" stroke="black" points="612.25,-2.5 612.25,-39.5 797,-39.5 797,-2.5 612.25,-2.5"/>
<text text-anchor="start" x="623.62" y="-16.2" font-family="Helvetica,sans-Serif" font-size="14.00">Output shape: </text>
<text text-anchor="start" x="712.88" y="-16.2" font-family="Helvetica,sans-Serif" font-weight="bold" font-size="14.00">(None, 256)</text>
</g>
<!-- 22566926992&#45;&gt;20704280464 -->
<g id="edge1" class="edge">
<title>22566926992&#45;&gt;20704280464</title>
<path fill="none" stroke="black" stroke-width="2" d="M363.23,-41.25C363.23,-41.25 421.46,-41.25 421.46,-41.25"/>
<polygon fill="black" stroke="black" stroke-width="2" points="421.46,-44.75 431.46,-41.25 421.46,-37.75 421.46,-44.75"/>
</g>
<!-- 24000333264 -->
<g id="node3" class="node">
<title>24000333264</title>
<polygon fill="none" stroke="black" points="871,-0.5 871,-82 1233.75,-82 1233.75,-0.5 871,-0.5"/>
<polygon fill="black" stroke="none" points="871,-0.5 871,-82 1233.75,-82 1233.75,-0.5 871,-0.5"/>
<polygon fill="black" stroke="none" points="873,-41.5 873,-80 1231.75,-80 1231.75,-41.5 873,-41.5"/>
<polygon fill="none" stroke="black" points="873,-41.5 873,-80 1231.75,-80 1231.75,-41.5 873,-41.5"/>
<text text-anchor="start" x="958.62" y="-54.8" font-family="Helvetica,sans-Serif" font-weight="bold" font-size="16.00" fill="white">activation_12</text>
<text text-anchor="start" x="1060.62" y="-54.8" font-family="Helvetica,sans-Serif" font-size="16.00" fill="white"> (Activation)</text>
<polygon fill="white" stroke="none" points="873,-2.5 873,-39.5 1045.75,-39.5 1045.75,-2.5 873,-2.5"/>
<polygon fill="none" stroke="black" points="873,-2.5 873,-39.5 1045.75,-39.5 1045.75,-2.5 873,-2.5"/>
<text text-anchor="start" x="884" y="-16.2" font-family="Helvetica,sans-Serif" font-size="14.00">Input shape: </text>
<text text-anchor="start" x="962" y="-16.2" font-family="Helvetica,sans-Serif" font-weight="bold" font-size="14.00">(None, 256)</text>
<polygon fill="white" stroke="none" points="1047.75,-2.5 1047.75,-39.5 1231.75,-39.5 1231.75,-2.5 1047.75,-2.5"/>
<polygon fill="none" stroke="black" points="1047.75,-2.5 1047.75,-39.5 1231.75,-39.5 1231.75,-2.5 1047.75,-2.5"/>
<text text-anchor="start" x="1058.75" y="-16.2" font-family="Helvetica,sans-Serif" font-size="14.00">Output shape: </text>
<text text-anchor="start" x="1148" y="-16.2" font-family="Helvetica,sans-Serif" font-weight="bold" font-size="14.00">(None, 256)</text>
</g>
<!-- 20704280464&#45;&gt;24000333264 -->
<g id="edge2" class="edge">
<title>20704280464&#45;&gt;24000333264</title>
<path fill="none" stroke="black" stroke-width="2" d="M799.36,-41.25C799.36,-41.25 857.81,-41.25 857.81,-41.25"/>
<polygon fill="black" stroke="black" stroke-width="2" points="857.81,-44.75 867.81,-41.25 857.81,-37.75 857.81,-44.75"/>
</g>
<!-- 24421694608 -->
<g id="node4" class="node">
<title>24421694608</title>
<polygon fill="none" stroke="black" points="1305.75,-0.5 1305.75,-82 1668.5,-82 1668.5,-0.5 1305.75,-0.5"/>
<polygon fill="black" stroke="none" points="1305.75,-0.5 1305.75,-82 1668.5,-82 1668.5,-0.5 1305.75,-0.5"/>
<polygon fill="black" stroke="none" points="1307.75,-41.5 1307.75,-80 1666.5,-80 1666.5,-41.5 1307.75,-41.5"/>
<polygon fill="none" stroke="black" points="1307.75,-41.5 1307.75,-80 1666.5,-80 1666.5,-41.5 1307.75,-41.5"/>
<text text-anchor="start" x="1407.62" y="-54.8" font-family="Helvetica,sans-Serif" font-weight="bold" font-size="16.00" fill="white">dropout_12</text>
<text text-anchor="start" x="1494.62" y="-54.8" font-family="Helvetica,sans-Serif" font-size="16.00" fill="white"> (Dropout)</text>
<polygon fill="white" stroke="none" points="1307.75,-2.5 1307.75,-39.5 1480.5,-39.5 1480.5,-2.5 1307.75,-2.5"/>
<polygon fill="none" stroke="black" points="1307.75,-2.5 1307.75,-39.5 1480.5,-39.5 1480.5,-2.5 1307.75,-2.5"/>
<text text-anchor="start" x="1318.75" y="-16.2" font-family="Helvetica,sans-Serif" font-size="14.00">Input shape: </text>
<text text-anchor="start" x="1396.75" y="-16.2" font-family="Helvetica,sans-Serif" font-weight="bold" font-size="14.00">(None, 256)</text>
<polygon fill="white" stroke="none" points="1482.5,-2.5 1482.5,-39.5 1666.5,-39.5 1666.5,-2.5 1482.5,-2.5"/>
<polygon fill="none" stroke="black" points="1482.5,-2.5 1482.5,-39.5 1666.5,-39.5 1666.5,-2.5 1482.5,-2.5"/>
<text text-anchor="start" x="1493.5" y="-16.2" font-family="Helvetica,sans-Serif" font-size="14.00">Output shape: </text>
<text text-anchor="start" x="1582.75" y="-16.2" font-family="Helvetica,sans-Serif" font-weight="bold" font-size="14.00">(None, 256)</text>
</g>
<!-- 24000333264&#45;&gt;24421694608 -->
<g id="edge3" class="edge">
<title>24000333264&#45;&gt;24421694608</title>
<path fill="none" stroke="black" stroke-width="2" d="M1234.23,-41.25C1234.23,-41.25 1292.27,-41.25 1292.27,-41.25"/>
<polygon fill="black" stroke="black" stroke-width="2" points="1292.27,-44.75 1302.27,-41.25 1292.27,-37.75 1292.27,-44.75"/>
</g>
<!-- 14644285584 -->
<g id="node5" class="node">
<title>14644285584</title>
<polygon fill="#8ea9db" stroke="black" points="1740.5,-0.5 1740.5,-82 2103.25,-82 2103.25,-0.5 1740.5,-0.5"/>
<polygon fill="black" stroke="none" points="1740.5,-0.5 1740.5,-82 2103.25,-82 2103.25,-0.5 1740.5,-0.5"/>
<polygon fill="black" stroke="none" points="1742.5,-41.5 1742.5,-80 2101.25,-80 2101.25,-41.5 1742.5,-41.5"/>
<polygon fill="none" stroke="black" points="1742.5,-41.5 1742.5,-80 2101.25,-80 2101.25,-41.5 1742.5,-41.5"/>
<text text-anchor="start" x="1854.38" y="-54.8" font-family="Helvetica,sans-Serif" font-weight="bold" font-size="16.00" fill="white">dense_23</text>
<text text-anchor="start" x="1927.88" y="-54.8" font-family="Helvetica,sans-Serif" font-size="16.00" fill="white"> (Dense)</text>
<polygon fill="white" stroke="none" points="1742.5,-2.5 1742.5,-39.5 1915.25,-39.5 1915.25,-2.5 1742.5,-2.5"/>
<polygon fill="none" stroke="black" points="1742.5,-2.5 1742.5,-39.5 1915.25,-39.5 1915.25,-2.5 1742.5,-2.5"/>
<text text-anchor="start" x="1753.5" y="-16.2" font-family="Helvetica,sans-Serif" font-size="14.00">Input shape: </text>
<text text-anchor="start" x="1831.5" y="-16.2" font-family="Helvetica,sans-Serif" font-weight="bold" font-size="14.00">(None, 256)</text>
<polygon fill="white" stroke="none" points="1917.25,-2.5 1917.25,-39.5 2101.25,-39.5 2101.25,-2.5 1917.25,-2.5"/>
<polygon fill="none" stroke="black" points="1917.25,-2.5 1917.25,-39.5 2101.25,-39.5 2101.25,-2.5 1917.25,-2.5"/>
<text text-anchor="start" x="1928.25" y="-16.2" font-family="Helvetica,sans-Serif" font-size="14.00">Output shape: </text>
<text text-anchor="start" x="2017.5" y="-16.2" font-family="Helvetica,sans-Serif" font-weight="bold" font-size="14.00">(None, 128)</text>
</g>
<!-- 24421694608&#45;&gt;14644285584 -->
<g id="edge4" class="edge">
<title>24421694608&#45;&gt;14644285584</title>
<path fill="none" stroke="black" stroke-width="2" d="M1668.98,-41.25C1668.98,-41.25 1727.02,-41.25 1727.02,-41.25"/>
<polygon fill="black" stroke="black" stroke-width="2" points="1727.02,-44.75 1737.02,-41.25 1727.02,-37.75 1727.02,-44.75"/>
</g>
<!-- 22566772560 -->
<g id="node6" class="node">
<title>22566772560</title>
<polygon fill="#b6d7a8" stroke="black" points="2175.25,-0.5 2175.25,-82 2539.5,-82 2539.5,-0.5 2175.25,-0.5"/>
<polygon fill="black" stroke="none" points="2175.25,-0.5 2175.25,-82 2539.5,-82 2539.5,-0.5 2175.25,-0.5"/>
<polygon fill="black" stroke="none" points="2177.25,-41.5 2177.25,-80 2537.5,-80 2537.5,-41.5 2177.25,-41.5"/>
<polygon fill="none" stroke="black" points="2177.25,-41.5 2177.25,-80 2537.5,-80 2537.5,-41.5 2177.25,-41.5"/>
<text text-anchor="start" x="2188.25" y="-54.8" font-family="Helvetica,sans-Serif" font-weight="bold" font-size="16.00" fill="white">batch_normalization_17</text>
<text text-anchor="start" x="2371.25" y="-54.8" font-family="Helvetica,sans-Serif" font-size="16.00" fill="white"> (BatchNormalization)</text>
<polygon fill="white" stroke="none" points="2177.25,-2.5 2177.25,-39.5 2350.75,-39.5 2350.75,-2.5 2177.25,-2.5"/>
<polygon fill="none" stroke="black" points="2177.25,-2.5 2177.25,-39.5 2350.75,-39.5 2350.75,-2.5 2177.25,-2.5"/>
<text text-anchor="start" x="2188.62" y="-16.2" font-family="Helvetica,sans-Serif" font-size="14.00">Input shape: </text>
<text text-anchor="start" x="2266.62" y="-16.2" font-family="Helvetica,sans-Serif" font-weight="bold" font-size="14.00">(None, 128)</text>
<polygon fill="white" stroke="none" points="2352.75,-2.5 2352.75,-39.5 2537.5,-39.5 2537.5,-2.5 2352.75,-2.5"/>
<polygon fill="none" stroke="black" points="2352.75,-2.5 2352.75,-39.5 2537.5,-39.5 2537.5,-2.5 2352.75,-2.5"/>
<text text-anchor="start" x="2364.12" y="-16.2" font-family="Helvetica,sans-Serif" font-size="14.00">Output shape: </text>
<text text-anchor="start" x="2453.38" y="-16.2" font-family="Helvetica,sans-Serif" font-weight="bold" font-size="14.00">(None, 128)</text>
</g>
<!-- 14644285584&#45;&gt;22566772560 -->
<g id="edge5" class="edge">
<title>14644285584&#45;&gt;22566772560</title>
<path fill="none" stroke="black" stroke-width="2" d="M2103.73,-41.25C2103.73,-41.25 2161.96,-41.25 2161.96,-41.25"/>
<polygon fill="black" stroke="black" stroke-width="2" points="2161.96,-44.75 2171.96,-41.25 2161.96,-37.75 2161.96,-44.75"/>
</g>
<!-- 14644176016 -->
<g id="node7" class="node">
<title>14644176016</title>
<polygon fill="none" stroke="black" points="2611.5,-0.5 2611.5,-82 2974.25,-82 2974.25,-0.5 2611.5,-0.5"/>
<polygon fill="black" stroke="none" points="2611.5,-0.5 2611.5,-82 2974.25,-82 2974.25,-0.5 2611.5,-0.5"/>
<polygon fill="black" stroke="none" points="2613.5,-41.5 2613.5,-80 2972.25,-80 2972.25,-41.5 2613.5,-41.5"/>
<polygon fill="none" stroke="black" points="2613.5,-41.5 2613.5,-80 2972.25,-80 2972.25,-41.5 2613.5,-41.5"/>
<text text-anchor="start" x="2699.12" y="-54.8" font-family="Helvetica,sans-Serif" font-weight="bold" font-size="16.00" fill="white">activation_13</text>
<text text-anchor="start" x="2801.12" y="-54.8" font-family="Helvetica,sans-Serif" font-size="16.00" fill="white"> (Activation)</text>
<polygon fill="white" stroke="none" points="2613.5,-2.5 2613.5,-39.5 2786.25,-39.5 2786.25,-2.5 2613.5,-2.5"/>
<polygon fill="none" stroke="black" points="2613.5,-2.5 2613.5,-39.5 2786.25,-39.5 2786.25,-2.5 2613.5,-2.5"/>
<text text-anchor="start" x="2624.5" y="-16.2" font-family="Helvetica,sans-Serif" font-size="14.00">Input shape: </text>
<text text-anchor="start" x="2702.5" y="-16.2" font-family="Helvetica,sans-Serif" font-weight="bold" font-size="14.00">(None, 128)</text>
<polygon fill="white" stroke="none" points="2788.25,-2.5 2788.25,-39.5 2972.25,-39.5 2972.25,-2.5 2788.25,-2.5"/>
<polygon fill="none" stroke="black" points="2788.25,-2.5 2788.25,-39.5 2972.25,-39.5 2972.25,-2.5 2788.25,-2.5"/>
<text text-anchor="start" x="2799.25" y="-16.2" font-family="Helvetica,sans-Serif" font-size="14.00">Output shape: </text>
<text text-anchor="start" x="2888.5" y="-16.2" font-family="Helvetica,sans-Serif" font-weight="bold" font-size="14.00">(None, 128)</text>
</g>
<!-- 22566772560&#45;&gt;14644176016 -->
<g id="edge6" class="edge">
<title>22566772560&#45;&gt;14644176016</title>
<path fill="none" stroke="black" stroke-width="2" d="M2539.86,-41.25C2539.86,-41.25 2598.31,-41.25 2598.31,-41.25"/>
<polygon fill="black" stroke="black" stroke-width="2" points="2598.31,-44.75 2608.31,-41.25 2598.31,-37.75 2598.31,-44.75"/>
</g>
<!-- 22567070096 -->
<g id="node8" class="node">
<title>22567070096</title>
<polygon fill="none" stroke="black" points="3046.25,-0.5 3046.25,-82 3409,-82 3409,-0.5 3046.25,-0.5"/>
<polygon fill="black" stroke="none" points="3046.25,-0.5 3046.25,-82 3409,-82 3409,-0.5 3046.25,-0.5"/>
<polygon fill="black" stroke="none" points="3048.25,-41.5 3048.25,-80 3407,-80 3407,-41.5 3048.25,-41.5"/>
<polygon fill="none" stroke="black" points="3048.25,-41.5 3048.25,-80 3407,-80 3407,-41.5 3048.25,-41.5"/>
<text text-anchor="start" x="3148.12" y="-54.8" font-family="Helvetica,sans-Serif" font-weight="bold" font-size="16.00" fill="white">dropout_13</text>
<text text-anchor="start" x="3235.12" y="-54.8" font-family="Helvetica,sans-Serif" font-size="16.00" fill="white"> (Dropout)</text>
<polygon fill="white" stroke="none" points="3048.25,-2.5 3048.25,-39.5 3221,-39.5 3221,-2.5 3048.25,-2.5"/>
<polygon fill="none" stroke="black" points="3048.25,-2.5 3048.25,-39.5 3221,-39.5 3221,-2.5 3048.25,-2.5"/>
<text text-anchor="start" x="3059.25" y="-16.2" font-family="Helvetica,sans-Serif" font-size="14.00">Input shape: </text>
<text text-anchor="start" x="3137.25" y="-16.2" font-family="Helvetica,sans-Serif" font-weight="bold" font-size="14.00">(None, 128)</text>
<polygon fill="white" stroke="none" points="3223,-2.5 3223,-39.5 3407,-39.5 3407,-2.5 3223,-2.5"/>
<polygon fill="none" stroke="black" points="3223,-2.5 3223,-39.5 3407,-39.5 3407,-2.5 3223,-2.5"/>
<text text-anchor="start" x="3234" y="-16.2" font-family="Helvetica,sans-Serif" font-size="14.00">Output shape: </text>
<text text-anchor="start" x="3323.25" y="-16.2" font-family="Helvetica,sans-Serif" font-weight="bold" font-size="14.00">(None, 128)</text>
</g>
<!-- 14644176016&#45;&gt;22567070096 -->
<g id="edge7" class="edge">
<title>14644176016&#45;&gt;22567070096</title>
<path fill="none" stroke="black" stroke-width="2" d="M2974.73,-41.25C2974.73,-41.25 3032.77,-41.25 3032.77,-41.25"/>
<polygon fill="black" stroke="black" stroke-width="2" points="3032.77,-44.75 3042.77,-41.25 3032.77,-37.75 3032.77,-44.75"/>
</g>
<!-- 20704038224 -->
<g id="node9" class="node">
<title>20704038224</title>
<polygon fill="#8ea9db" stroke="black" points="3481,-0.5 3481,-82 3836.25,-82 3836.25,-0.5 3481,-0.5"/>
<polygon fill="black" stroke="none" points="3481,-0.5 3481,-82 3836.25,-82 3836.25,-0.5 3481,-0.5"/>
<polygon fill="black" stroke="none" points="3483,-41.5 3483,-80 3834.25,-80 3834.25,-41.5 3483,-41.5"/>
<polygon fill="none" stroke="black" points="3483,-41.5 3483,-80 3834.25,-80 3834.25,-41.5 3483,-41.5"/>
<text text-anchor="start" x="3591.12" y="-54.8" font-family="Helvetica,sans-Serif" font-weight="bold" font-size="16.00" fill="white">dense_24</text>
<text text-anchor="start" x="3664.62" y="-54.8" font-family="Helvetica,sans-Serif" font-size="16.00" fill="white"> (Dense)</text>
<polygon fill="white" stroke="none" points="3483,-2.5 3483,-39.5 3655.75,-39.5 3655.75,-2.5 3483,-2.5"/>
<polygon fill="none" stroke="black" points="3483,-2.5 3483,-39.5 3655.75,-39.5 3655.75,-2.5 3483,-2.5"/>
<text text-anchor="start" x="3494" y="-16.2" font-family="Helvetica,sans-Serif" font-size="14.00">Input shape: </text>
<text text-anchor="start" x="3572" y="-16.2" font-family="Helvetica,sans-Serif" font-weight="bold" font-size="14.00">(None, 128)</text>
<polygon fill="white" stroke="none" points="3657.75,-2.5 3657.75,-39.5 3834.25,-39.5 3834.25,-2.5 3657.75,-2.5"/>
<polygon fill="none" stroke="black" points="3657.75,-2.5 3657.75,-39.5 3834.25,-39.5 3834.25,-2.5 3657.75,-2.5"/>
<text text-anchor="start" x="3668.75" y="-16.2" font-family="Helvetica,sans-Serif" font-size="14.00">Output shape: </text>
<text text-anchor="start" x="3758" y="-16.2" font-family="Helvetica,sans-Serif" font-weight="bold" font-size="14.00">(None, 64)</text>
</g>
<!-- 22567070096&#45;&gt;20704038224 -->
<g id="edge8" class="edge">
<title>22567070096&#45;&gt;20704038224</title>
<path fill="none" stroke="black" stroke-width="2" d="M3409.47,-41.25C3409.47,-41.25 3467.63,-41.25 3467.63,-41.25"/>
<polygon fill="black" stroke="black" stroke-width="2" points="3467.63,-44.75 3477.63,-41.25 3467.63,-37.75 3467.63,-44.75"/>
</g>
<!-- 22567066960 -->
<g id="node10" class="node">
<title>22567066960</title>
<polygon fill="#b6d7a8" stroke="black" points="3908.25,-0.5 3908.25,-82 4272.5,-82 4272.5,-0.5 3908.25,-0.5"/>
<polygon fill="black" stroke="none" points="3908.25,-0.5 3908.25,-82 4272.5,-82 4272.5,-0.5 3908.25,-0.5"/>
<polygon fill="black" stroke="none" points="3910.25,-41.5 3910.25,-80 4270.5,-80 4270.5,-41.5 3910.25,-41.5"/>
<polygon fill="none" stroke="black" points="3910.25,-41.5 3910.25,-80 4270.5,-80 4270.5,-41.5 3910.25,-41.5"/>
<text text-anchor="start" x="3921.25" y="-54.8" font-family="Helvetica,sans-Serif" font-weight="bold" font-size="16.00" fill="white">batch_normalization_18</text>
<text text-anchor="start" x="4104.25" y="-54.8" font-family="Helvetica,sans-Serif" font-size="16.00" fill="white"> (BatchNormalization)</text>
<polygon fill="white" stroke="none" points="3910.25,-2.5 3910.25,-39.5 4083.75,-39.5 4083.75,-2.5 3910.25,-2.5"/>
<polygon fill="none" stroke="black" points="3910.25,-2.5 3910.25,-39.5 4083.75,-39.5 4083.75,-2.5 3910.25,-2.5"/>
<text text-anchor="start" x="3925.38" y="-16.2" font-family="Helvetica,sans-Serif" font-size="14.00">Input shape: </text>
<text text-anchor="start" x="4003.38" y="-16.2" font-family="Helvetica,sans-Serif" font-weight="bold" font-size="14.00">(None, 64)</text>
<polygon fill="white" stroke="none" points="4085.75,-2.5 4085.75,-39.5 4270.5,-39.5 4270.5,-2.5 4085.75,-2.5"/>
<polygon fill="none" stroke="black" points="4085.75,-2.5 4085.75,-39.5 4270.5,-39.5 4270.5,-2.5 4085.75,-2.5"/>
<text text-anchor="start" x="4100.88" y="-16.2" font-family="Helvetica,sans-Serif" font-size="14.00">Output shape: </text>
<text text-anchor="start" x="4190.12" y="-16.2" font-family="Helvetica,sans-Serif" font-weight="bold" font-size="14.00">(None, 64)</text>
</g>
<!-- 20704038224&#45;&gt;22567066960 -->
<g id="edge9" class="edge">
<title>20704038224&#45;&gt;22567066960</title>
<path fill="none" stroke="black" stroke-width="2" d="M3836.73,-41.25C3836.73,-41.25 3894.77,-41.25 3894.77,-41.25"/>
<polygon fill="black" stroke="black" stroke-width="2" points="3894.77,-44.75 3904.77,-41.25 3894.77,-37.75 3894.77,-44.75"/>
</g>
<!-- 22567069584 -->
<g id="node11" class="node">
<title>22567069584</title>
<polygon fill="none" stroke="black" points="4344.5,-0.5 4344.5,-82 4692.25,-82 4692.25,-0.5 4344.5,-0.5"/>
<polygon fill="black" stroke="none" points="4344.5,-0.5 4344.5,-82 4692.25,-82 4692.25,-0.5 4344.5,-0.5"/>
<polygon fill="black" stroke="none" points="4346.5,-41.5 4346.5,-80 4690.25,-80 4690.25,-41.5 4346.5,-41.5"/>
<polygon fill="none" stroke="black" points="4346.5,-41.5 4346.5,-80 4690.25,-80 4690.25,-41.5 4346.5,-41.5"/>
<text text-anchor="start" x="4424.62" y="-54.8" font-family="Helvetica,sans-Serif" font-weight="bold" font-size="16.00" fill="white">activation_14</text>
<text text-anchor="start" x="4526.62" y="-54.8" font-family="Helvetica,sans-Serif" font-size="16.00" fill="white"> (Activation)</text>
<polygon fill="white" stroke="none" points="4346.5,-2.5 4346.5,-39.5 4511.75,-39.5 4511.75,-2.5 4346.5,-2.5"/>
<polygon fill="none" stroke="black" points="4346.5,-2.5 4346.5,-39.5 4511.75,-39.5 4511.75,-2.5 4346.5,-2.5"/>
<text text-anchor="start" x="4357.5" y="-16.2" font-family="Helvetica,sans-Serif" font-size="14.00">Input shape: </text>
<text text-anchor="start" x="4435.5" y="-16.2" font-family="Helvetica,sans-Serif" font-weight="bold" font-size="14.00">(None, 64)</text>
<polygon fill="white" stroke="none" points="4513.75,-2.5 4513.75,-39.5 4690.25,-39.5 4690.25,-2.5 4513.75,-2.5"/>
<polygon fill="none" stroke="black" points="4513.75,-2.5 4513.75,-39.5 4690.25,-39.5 4690.25,-2.5 4513.75,-2.5"/>
<text text-anchor="start" x="4524.75" y="-16.2" font-family="Helvetica,sans-Serif" font-size="14.00">Output shape: </text>
<text text-anchor="start" x="4614" y="-16.2" font-family="Helvetica,sans-Serif" font-weight="bold" font-size="14.00">(None, 64)</text>
</g>
<!-- 22567066960&#45;&gt;22567069584 -->
<g id="edge10" class="edge">
<title>22567066960&#45;&gt;22567069584</title>
<path fill="none" stroke="black" stroke-width="2" d="M4272.82,-41.25C4272.82,-41.25 4331.11,-41.25 4331.11,-41.25"/>
<polygon fill="black" stroke="black" stroke-width="2" points="4331.11,-44.75 4341.11,-41.25 4331.11,-37.75 4331.11,-44.75"/>
</g>
<!-- 22566930832 -->
<g id="node12" class="node">
<title>22566930832</title>
<polygon fill="none" stroke="black" points="4764.25,-0.5 4764.25,-82 5112,-82 5112,-0.5 4764.25,-0.5"/>
<polygon fill="black" stroke="none" points="4764.25,-0.5 4764.25,-82 5112,-82 5112,-0.5 4764.25,-0.5"/>
<polygon fill="black" stroke="none" points="4766.25,-41.5 4766.25,-80 5110,-80 5110,-41.5 4766.25,-41.5"/>
<polygon fill="none" stroke="black" points="4766.25,-41.5 4766.25,-80 5110,-80 5110,-41.5 4766.25,-41.5"/>
<text text-anchor="start" x="4858.62" y="-54.8" font-family="Helvetica,sans-Serif" font-weight="bold" font-size="16.00" fill="white">dropout_14</text>
<text text-anchor="start" x="4945.62" y="-54.8" font-family="Helvetica,sans-Serif" font-size="16.00" fill="white"> (Dropout)</text>
<polygon fill="white" stroke="none" points="4766.25,-2.5 4766.25,-39.5 4931.5,-39.5 4931.5,-2.5 4766.25,-2.5"/>
<polygon fill="none" stroke="black" points="4766.25,-2.5 4766.25,-39.5 4931.5,-39.5 4931.5,-2.5 4766.25,-2.5"/>
<text text-anchor="start" x="4777.25" y="-16.2" font-family="Helvetica,sans-Serif" font-size="14.00">Input shape: </text>
<text text-anchor="start" x="4855.25" y="-16.2" font-family="Helvetica,sans-Serif" font-weight="bold" font-size="14.00">(None, 64)</text>
<polygon fill="white" stroke="none" points="4933.5,-2.5 4933.5,-39.5 5110,-39.5 5110,-2.5 4933.5,-2.5"/>
<polygon fill="none" stroke="black" points="4933.5,-2.5 4933.5,-39.5 5110,-39.5 5110,-2.5 4933.5,-2.5"/>
<text text-anchor="start" x="4944.5" y="-16.2" font-family="Helvetica,sans-Serif" font-size="14.00">Output shape: </text>
<text text-anchor="start" x="5033.75" y="-16.2" font-family="Helvetica,sans-Serif" font-weight="bold" font-size="14.00">(None, 64)</text>
</g>
<!-- 22567069584&#45;&gt;22566930832 -->
<g id="edge11" class="edge">
<title>22567069584&#45;&gt;22566930832</title>
<path fill="none" stroke="black" stroke-width="2" d="M4692.74,-41.25C4692.74,-41.25 4750.94,-41.25 4750.94,-41.25"/>
<polygon fill="black" stroke="black" stroke-width="2" points="4750.94,-44.75 4760.94,-41.25 4750.94,-37.75 4750.94,-44.75"/>
</g>
<!-- 22566933328 -->
<g id="node13" class="node">
<title>22566933328</title>
<polygon fill="#8ea9db" stroke="black" points="5184,-0.5 5184,-82 5524.25,-82 5524.25,-0.5 5184,-0.5"/>
<polygon fill="black" stroke="none" points="5184,-0.5 5184,-82 5524.25,-82 5524.25,-0.5 5184,-0.5"/>
<polygon fill="black" stroke="none" points="5186,-41.5 5186,-80 5522.25,-80 5522.25,-41.5 5186,-41.5"/>
<polygon fill="none" stroke="black" points="5186,-41.5 5186,-80 5522.25,-80 5522.25,-41.5 5186,-41.5"/>
<text text-anchor="start" x="5286.62" y="-54.8" font-family="Helvetica,sans-Serif" font-weight="bold" font-size="16.00" fill="white">dense_25</text>
<text text-anchor="start" x="5360.12" y="-54.8" font-family="Helvetica,sans-Serif" font-size="16.00" fill="white"> (Dense)</text>
<polygon fill="white" stroke="none" points="5186,-2.5 5186,-39.5 5351.25,-39.5 5351.25,-2.5 5186,-2.5"/>
<polygon fill="none" stroke="black" points="5186,-2.5 5186,-39.5 5351.25,-39.5 5351.25,-2.5 5186,-2.5"/>
<text text-anchor="start" x="5197" y="-16.2" font-family="Helvetica,sans-Serif" font-size="14.00">Input shape: </text>
<text text-anchor="start" x="5275" y="-16.2" font-family="Helvetica,sans-Serif" font-weight="bold" font-size="14.00">(None, 64)</text>
<polygon fill="white" stroke="none" points="5353.25,-2.5 5353.25,-39.5 5522.25,-39.5 5522.25,-2.5 5353.25,-2.5"/>
<polygon fill="none" stroke="black" points="5353.25,-2.5 5353.25,-39.5 5522.25,-39.5 5522.25,-2.5 5353.25,-2.5"/>
<text text-anchor="start" x="5364.25" y="-16.2" font-family="Helvetica,sans-Serif" font-size="14.00">Output shape: </text>
<text text-anchor="start" x="5453.5" y="-16.2" font-family="Helvetica,sans-Serif" font-weight="bold" font-size="14.00">(None, 1)</text>
</g>
<!-- 22566930832&#45;&gt;22566933328 -->
<g id="edge12" class="edge">
<title>22566930832&#45;&gt;22566933328</title>
<path fill="none" stroke="black" stroke-width="2" d="M5112.44,-41.25C5112.44,-41.25 5170.69,-41.25 5170.69,-41.25"/>
<polygon fill="black" stroke="black" stroke-width="2" points="5170.69,-44.75 5180.69,-41.25 5170.69,-37.75 5170.69,-44.75"/>
</g>
</g>
</svg>
